<svg xmlns="http://www.w3.org/2000/svg" width="215.999" height="136.167"><path d="M148.984 44.925c.889 3.552 1.555 8.214 1.998 13.986l.223 3.108 1.332 9.768c.59 3.701 2.182 6.92 4.772 9.657 2.587 2.74 5.661 4.107 9.214 4.107 4.141 0 7.359-1.183 9.656-3.552 2.293-2.366 3.441-5.55 3.441-9.546 0-1.183-.445-3.032-1.332-5.55l-.223-.888c1.775-2.81 4.068-4.218 6.883-4.218 2.07 0 3.809.593 5.217 1.776 1.404 1.187 2.109 2.813 2.109 4.884 0 2.664-.744 4.96-2.221 6.882-1.48 1.925-3.629 4.072-6.438 6.438l-.445.444a122.682 122.682 0 01-13.875 10.323 123.165 123.165 0 01-15.762 8.547c-5.55 2.519-11.138 4.517-16.761 5.994-5.626 1.481-11.101 2.22-16.428 2.22-4.589 0-9.29-.59-14.097-1.776-4.811-1.183-9.289-3.032-13.431-5.55-4.145-2.515-7.475-5.661-9.99-9.435-2.519-3.774-3.774-8.176-3.774-13.209 0-4.44 1.293-8.065 3.885-10.878 2.588-2.81 6.105-5.328 10.545-7.548-1.925-3.847-4.922-6.771-8.991-8.769-4.072-1.998-8.474-3.07-13.209-3.219 0 3.851-.888 7.548-2.664 11.1-1.776 3.552-4.145 6.771-7.104 9.657a56.023 56.023 0 01-9.879 7.659c-3.628 2.22-7.292 4.072-10.989 5.55 1.183 6.365 4.957 9.546 11.322 9.546 3.698 0 6.882-1.256 9.546-3.774v1.776c0 .742.073 1.852.222 3.33.146 1.63.222 2.813.222 3.552 0 3.257-1.37 5.921-4.107 7.992-2.74 2.074-5.81 3.108-9.213 3.108-5.477 0-10.028-1.922-13.653-5.772-3.628-3.847-5.588-8.509-5.883-13.986-1.332-.146-3.035-.666-5.106-1.554 1.034-3.996 2.737-7.177 5.106-9.546.295-4.142 1.478-8.103 3.552-11.877 2.071-3.774 4.773-7.139 8.103-10.101 3.33-2.959 6.993-5.439 10.989-7.437s8.065-3.292 12.21-3.885c-1.037-2.22-2.664-3.809-4.884-4.773-2.22-.96-5.328-1.811-9.324-2.553-5.477-1.034-9.546-2.404-12.21-4.107-2.664-1.7-3.996-4.919-3.996-9.657 0-4.291 1.478-7.583 4.44-9.879 2.959-2.293 6.584-3.441 10.878-3.441h2.22c-2.22 1.776-3.33 4.072-3.33 6.882 0 2.519.888 4.811 2.664 6.882 1.776 2.075 4.069 3.923 6.882 5.55l.222.222c3.996 2.519 6.993 4.773 8.991 6.771 1.998 1.998 3.586 4.7 4.773 8.103l2.664-.222c3.847 0 7.881.999 12.099 2.997 4.218 1.998 7.881 4.405 10.989 7.215l.444-.444c-2.518-5.03-3.774-9.619-3.774-13.764 0-5.772 2.255-10.545 6.771-14.319 4.513-3.774 9.657-5.661 15.429-5.661 5.18 0 10.323 1.297 15.43 3.885 5.105 2.591 9.213 5.959 12.32 10.101 2.666 3.702 4.443 7.327 5.33 10.878zM48.197 71.232a53.329 53.329 0 008.547-5.106c2.737-1.998 4.957-4.218 6.66-6.66 1.7-2.442 2.553-4.995 2.553-7.659 0-.739-.149-1.7-.444-2.886-3.108 0-6.182.704-9.213 2.109-3.035 1.409-5.81 3.295-8.325 5.661a25.72 25.72 0 00-5.883 8.214c-1.408 3.108-2.109 6.292-2.109 9.546 2.515-.739 5.251-1.81 8.214-3.219z"/></svg>